<?xml version="1.0" encoding="UTF-8"?>
<svg width="87px" height="128px" viewBox="0 0 87 128" version="1.1" xmlns="http://www.w3.org/2000/svg" xmlns:xlink="http://www.w3.org/1999/xlink">
    <!-- Generator: Sketch 52.6 (67491) - http://www.bohemiancoding.com/sketch -->
    <title>Group 2</title>
    <desc>Created with Sketch.</desc>
    <g id="Page-1" stroke="none" stroke-width="1" fill="none" fill-rule="evenodd">
        <g id="Dashboard-" transform="translate(-273.000000, -133.000000)">
            <g id="Group-2" transform="translate(273.000000, 133.000000)">
                <path d="M7.82612456,2.4424586 C21.0603622,0.505566253 34.3871471,0.828381644 47.7139319,0.666973948 C56.6910022,0.666973948 65.6680725,-0.140064529 74.6451428,0.0213431663 C78.0693861,0.0213431663 81.4010823,2.60386629 85.0104199,0.989789339 C86.2135324,0.505566253 87.2315507,4.37935095 86.9539093,7.44609716 C85.1955141,27.7834668 85.0104199,48.2822441 85.102967,68.9424291 C85.1955141,80.7251909 85.5657026,92.5079527 85.8433439,104.129307 C85.9358911,109.455761 84.6402314,114.620807 85.1955141,120.108669 C85.3806084,121.561338 84.9178728,123.014007 83.8073074,122.852599 C82.9743833,122.529784 82.6041949,121.39993 82.6041949,120.108669 C82.6041949,116.557699 82.2340064,113.00673 82.696742,109.617168 C84.1774958,97.9958143 82.9743833,86.3744603 82.696742,74.9145139 C82.4191006,60.0650059 82.8818362,45.3769056 82.8818362,30.5273976 C82.8818362,23.7482744 83.8998545,16.9691512 83.1594776,10.0286203 C82.8818362,7.28468946 82.3265535,6.31624329 80.7532525,5.9934279 C68.1668447,3.24949708 55.5804368,5.50920481 42.9940289,5.34779712 C39.0145029,5.34779712 35.0349769,5.8320202 31.0554509,5.50920481 C23.0038517,4.86357403 15.0447997,6.63905868 7.08574763,7.12328177 C4.77206971,7.28468946 3.47641007,9.38298951 3.38386296,13.7409973 C3.29131584,33.1099207 2.82858026,52.3174365 3.47641007,71.68636 C4.03169277,86.0516449 4.95716394,100.578337 4.67952259,115.10503 C4.58697547,122.368376 5.32735241,123.49823 9.12178419,122.852599 C18.9317786,121.39993 28.6492258,121.39993 38.4592202,121.561338 C49.8425155,121.722746 61.1332638,121.561338 72.5165591,121.722746 C74.3675015,121.722746 75.570614,119.30163 77.3290092,119.140222 C78.2544804,118.978815 78.9023102,119.30163 79.1799515,120.915707 C79.55014,123.175415 78.1619333,121.561338 77.8842919,122.529784 C77.7917448,122.852599 77.143915,122.852599 77.143915,123.175415 C76.5886323,130.922984 74.2749544,127.210607 71.8687293,126.403569 C68.0742975,125.112307 64.0947715,125.273715 60.2077926,125.59653 C48.7319501,126.403569 37.3486548,124.950899 25.8728123,125.59653 C18.7466843,125.919346 11.7131035,126.564976 4.58697547,126.887792 C1.25527927,127.0492 1.62546774,126.887792 2.45839179,121.561338 C3.01367449,117.848961 2.73603314,113.652361 2.55093891,109.617168 C1.25527927,80.0795601 0.144713872,50.7033596 0.607449456,21.1657513 C0.699996572,17.2919666 -0.225474595,13.5795896 0.0521667553,9.22158181 C0.514902339,3.73372016 1.90310909,2.4424586 4.49442836,2.4424586 C5.60499376,2.4424586 6.71555916,2.4424586 7.82612456,2.4424586 Z" id="Path-Copy-7" fill="#BCC6C6" fill-rule="nonzero"></path>
                <path d="M20.7033023,71.1912985 C29.2934024,71.9634557 35.9080382,72.3495343 40.5472097,72.3495343 C46.3180138,72.3495343 56.2076756,71.5663562 70.2161949,70 C71.0463035,70 70.9995199,71.3267004 70.9995199,72.2930923 L69.0130742,72.7827021 C69.0130742,73.749094 69.0089735,74.8401734 68.1788649,74.8401734 C56.4255649,75.6133911 47.6949893,76 41.9871382,76 C37.2850136,76 29.3385785,75.5599004 18.1478329,74.6797012 C17.3177243,74.6797012 17,73.3413804 17,72.3749885 L19.1620945,71.7619811 C19.1620945,70.7955892 19.8731937,71.1912985 20.7033023,71.1912985 Z" id="Rectangle" fill="#BCC6C6" transform="translate(44.000000, 73.000000) scale(1, -1) translate(-44.000000, -73.000000) "></path>
                <path d="M20.7033023,84.1912985 C29.2934024,84.9634557 35.9080382,85.3495343 40.5472097,85.3495343 C46.3180138,85.3495343 56.2076756,84.5663562 70.2161949,83 C71.0463035,83 70.9995199,84.3267004 70.9995199,85.2930923 L69.0130742,85.7827021 C69.0130742,86.749094 69.0089735,87.8401734 68.1788649,87.8401734 C56.4255649,88.6133911 47.6949893,89 41.9871382,89 C37.2850136,89 29.3385785,88.5599004 18.1478329,87.6797012 C17.3177243,87.6797012 17,86.3413804 17,85.3749885 L19.1620945,84.7619811 C19.1620945,83.7955892 19.8731937,84.1912985 20.7033023,84.1912985 Z" id="Rectangle-Copy" fill="#BCC6C6" transform="translate(44.000000, 86.000000) scale(1, -1) translate(-44.000000, -86.000000) "></path>
                <path d="M20.7033023,98.1912985 C29.2934024,98.9634557 35.9080382,99.3495343 40.5472097,99.3495343 C46.3180138,99.3495343 56.2076756,98.5663562 70.2161949,97 C71.0463035,97 70.9995199,98.3267004 70.9995199,99.2930923 L69.0130742,99.7827021 C69.0130742,100.749094 69.0089735,101.840173 68.1788649,101.840173 C56.4255649,102.613391 47.6949893,103 41.9871382,103 C37.2850136,103 29.3385785,102.5599 18.1478329,101.679701 C17.3177243,101.679701 17,100.34138 17,99.3749885 L19.1620945,98.7619811 C19.1620945,97.7955892 19.8731937,98.1912985 20.7033023,98.1912985 Z" id="Rectangle-Copy-2" fill="#BCC6C6" transform="translate(44.000000, 100.000000) scale(1, -1) translate(-44.000000, -100.000000) "></path>
                <g id="Room-icon" transform="translate(26.000000, 26.000000)">
                    <path d="M20.33625,0 L2.10375,0 C0.9438825,0 0,1.008 0,2.25 L0,18.75 C0,19.989 0.9438825,21 2.10375,21 L20.33625,21 C21.4961175,21 22.44,19.989 22.44,18.75 L22.44,2.25 C22.44,1.008 21.4961175,0 20.33625,0" id="Fill-410" fill="#BCC6C6"></path>
                    <path d="M9.85887899,7.77250881 C9.64095011,7.77250881 9.42879643,7.82757375 9.22241795,7.93770363 C9.01586961,8.04765237 8.82936461,8.2280625 8.66324268,8.47857175 C8.49695088,8.72944327 8.35936523,9.05657248 8.25048572,9.46014052 C8.14126649,9.86370856 8.08113647,10.3529533 8.06992578,10.9276936 C8.41372006,10.8911044 8.74341605,10.8148467 9.05901375,10.6983771 C9.37427174,10.5824509 9.65521825,10.4295733 9.90185327,10.2397441 C10.1483184,10.0502773 10.3431465,9.82096078 10.4868471,9.55179466 C10.6300381,9.28299082 10.7017185,8.9830318 10.7017185,8.65300444 C10.7017185,8.39615548 10.6184877,8.18513359 10.4523657,8.0201199 C10.2859041,7.85510622 10.0880185,7.77250881 9.85887899,7.77250881 Z M10.0825831,15.8438697 C9.40569563,15.8438697 8.77772753,15.7491362 8.19884864,15.5594882 C7.61963002,15.3700214 7.11786704,15.0825606 6.69355968,14.6974683 C6.26925232,14.3121949 5.93955633,13.8323692 5.70447171,13.2574477 C5.46938709,12.6827074 5.35184478,12.0039958 5.35184478,11.2211318 C5.35184478,10.3163641 5.47788003,9.54273793 5.73029025,8.90061553 C5.98236076,8.25849313 6.31800181,7.72976103 6.73670382,7.31405696 C7.15523598,6.8983529 7.62812297,6.59567687 8.15570449,6.40584773 C8.68311616,6.21638087 9.22241795,6.12164744 9.77276056,6.12164744 C10.3577544,6.12164744 10.8678404,6.19192769 11.3038681,6.33248819 C11.739556,6.47322983 12.1037333,6.66269669 12.3962302,6.90106992 C12.6885572,7.13962428 12.9063163,7.42400571 13.049847,7.75403308 C13.1932078,8.08442271 13.2648883,8.43926553 13.2648883,8.81801812 C13.2648883,9.4297099 13.0984266,9.95554384 12.7660129,10.3957011 C12.4332594,10.8360395 12.0147273,11.1968597 11.5102465,11.4779807 C11.0054261,11.7596451 10.4610285,11.9672255 9.87603473,12.1016274 C9.29121078,12.2363916 8.74069831,12.3099323 8.22466718,12.321706 C8.41949526,12.8846726 8.73203551,13.2695837 9.16211806,13.4775263 C9.59220062,13.6854689 10.0537071,13.7894402 10.5469771,13.7894402 C10.8793908,13.7894402 11.2761811,14.03524 11.5343665,13.9495633 C11.7923821,13.8642489 12.0188039,13.7693343 12.2138018,13.665363 C12.4086299,13.5615728 12.6391283,13.534946 12.7655033,13.4494505 C12.8915385,13.3639549 13.1560087,13.2023828 13.1560087,13.3000144 C13.1560087,13.4469146 13.0984266,13.5847581 13.0411842,13.8718565 C12.9837719,14.1594984 12.9035985,14.4436987 12.8004942,14.7250008 C12.7660129,14.8229947 12.6741192,14.9358416 12.525153,15.064266 C12.376017,15.1926905 12.1839067,15.3149564 11.9489919,15.4312449 C11.7137374,15.5477145 11.4385661,15.6453461 11.1231383,15.724683 C10.8077104,15.8042012 10.4610285,15.8438697 10.0825831,15.8438697 Z" id="Fill-13" fill="#FFFFFE" transform="translate(9.308367, 10.982759) rotate(-14.000000) translate(-9.308367, -10.982759) "></path>
                    <path d="M18.2834303,9.8951108 C17.4018287,12.7474897 13.4992706,14.6316715 10.3731251,14.630398 L10.9018461,12.5980256 C13.3926759,12.5990408 17.7433221,9.80827524 17.7423149,7.34099318" id="Fill-14" fill="#FFFFFE" transform="translate(14.328278, 10.985696) rotate(-14.000000) translate(-14.328278, -10.985696) "></path>
                    <path d="M32.6424686,1.41947951 C32.4207086,1.2886806 32.1416229,1.27730678 31.9077943,1.38820151 L22.8563657,5.65338359 C22.6014171,5.77423041 22.44,6.01876752 22.44,6.29031745 L22.44,13.3989542 C22.44,13.666239 22.6014171,13.9121978 22.8563657,14.0344664 L31.9077943,18.2996484 C32.0149029,18.3494089 32.1310629,18.375 32.2457143,18.375 C32.3829943,18.375 32.5202743,18.3380351 32.6424686,18.2683704 C32.8642286,18.1389933 33,17.9100952 33,17.6641363 L33,2.02513537 C33,1.77775481 32.8642286,1.5488567 32.6424686,1.41947951" id="Fill-411" fill="#BCC6C6"></path>
                </g>
            </g>
        </g>
    </g>
</svg>